<?xml version="1.0" encoding="UTF-8"?>
<svg xmlns="http://www.w3.org/2000/svg" xmlns:xlink="http://www.w3.org/1999/xlink" version="1.0" id="Ebene_1" x="0px" y="0px" viewBox="0 0 283.5 134.5" style="enable-background:new 0 0 283.5 134.5;" xml:space="preserve">
<style type="text/css">
	.st0{fill:#4A4A49;}
</style>
<switch>

	<g>
		<path class="st0" d="M16.7,20.7h250.1V119H16.7V20.7z M16.2,119.5h251.1V20.2H16.2V119.5z"></path>
		<polygon class="st0" points="214.4,97.8 217.1,96.6 216.8,93.7 219.1,95.4 221.5,93.7 221.2,96.6 223.9,97.8 221.2,99     221.5,101.9 219.1,100.2 216.8,101.9 217.1,99   "></polygon>
		<polygon class="st0" points="234,97.8 236.7,96.6 236.4,93.7 238.8,95.4 241.1,93.7 240.8,96.6 243.5,97.8 240.8,99 241.1,101.9     238.8,100.2 236.4,101.9 236.7,99   "></polygon>
		<polygon class="st0" points="175.1,97.8 177.8,96.6 177.5,93.7 179.9,95.4 182.3,93.7 182,96.6 184.7,97.8 182,99 182.3,101.9     179.9,100.2 177.5,101.9 177.8,99   "></polygon>
		<polygon class="st0" points="194.8,97.8 197.5,96.6 197.1,93.7 199.5,95.4 201.9,93.7 201.6,96.6 204.3,97.8 201.6,99     201.9,101.9 199.5,100.2 197.1,101.9 197.5,99   "></polygon>
		<path class="st0" d="M33.6,63.5l3.8-0.2c0.2-1.3,0.2-7.4,0.2-12.4c0-4.9-0.1-9.5-0.2-10.8l-3.8-0.2v-2c1,0,5.2,0.2,7.6,0.2    c2.4,0,7-0.1,8-0.2v2c-1.7,0-4.2,0.2-4.2,0.2c-0.2,1.3-0.2,5.9-0.2,10.8c0,5.1,0,9.4,0.1,11.1c0,1,0.6,1.4,4,1.5h1.6    c3.5,0,4.7-1.5,5.2-4.6l0.2-1h1.9v7.6H49c-2.3,0-5.5-0.1-7.9-0.1c-2.4,0-6.6,0.1-7.6,0.1V63.5z"></path>
		<path class="st0" d="M82.2,56.4h-7.8L72,63.2l4,0.4v2c-1,0-3.3-0.1-5.5-0.1c-1.6,0-4,0.1-5,0.1v-2l3.6-0.4l4.5-11.8l5.2-13.7h4    l4.9,13.7l4.2,12l4.2,0.2v2c-1,0-5.2-0.1-7.5-0.1c-2.6,0-6.8,0.1-7.8,0.1v-2l3.8-0.2L82.2,56.4z M78.3,44.9l-2.3,6.9l-0.6,1.8h5.9    l-0.6-1.8L78.3,44.9z"></path>
		<path class="st0" d="M104.5,63.5l3.8-0.2c0.2-1.3,0.2-7.4,0.2-12.4c0-4.9-0.1-9.5-0.2-10.8l-3.8-0.2v-2c1,0,5.1,0.2,7.4,0.2    c2.3,0,6.4-0.1,7.4-0.2v2l-3.4,0.2c-0.2,1.2-0.2,5.3-0.2,9.8H126c0-4.5-0.1-8.5-0.2-9.8l-3.4-0.2v-2c1,0,4.6,0.2,6.9,0.2    c2.3,0,6.8-0.1,7.8-0.2v2l-3.8,0.2c-0.2,1.3-0.2,5.9-0.2,10.8c0,5.1,0.1,11.2,0.2,12.4l3.8,0.2v2c-1,0-5.5-0.1-7.8-0.1    c-2.3,0-5.9,0.1-6.9,0.1v-2l3.4-0.2c0.1-1.2,0.2-6.4,0.2-11.2h-10.4c0,4.8,0.1,10,0.2,11.2l3.4,0.2v2c-1,0-5-0.1-7.4-0.1    c-2.3,0-6.4,0.1-7.4,0.1V63.5z"></path>
		<path class="st0" d="M156,37.9l14,17.5V40.1l-4.2-0.2v-2c1,0,3.6,0.2,5.6,0.2c0,0,5.2-0.2,5.3-0.2v2l-4.1,0.2l-0.2,11.7l-0.2,13.9    h-2.6l-17.8-22.1v19.8l4.2,0.2v2c-1,0-3.4-0.1-5.6-0.1c-1.9,0-4.3,0.1-5.3,0.1v-2l4-0.2l0.1-11.6l0.2-10.2c-0.9-1-2.3-1.6-4.5-1.6    v-2C146.1,37.9,156,37.9,156,37.9"></path>
		<path class="st0" d="M184.3,63.5l3.8-0.2c0.2-1.3,0.2-7.4,0.2-12.4c0-4.9-0.1-9.5-0.2-10.8l-3.8-0.2v-2c1,0,5,0.2,7.4,0.2    c2.4,0,13.3-0.2,15.5-0.2l0.3,5.5h-1.9c0,0-0.1-1.7-0.7-2.4c-0.8-0.8-2.1-1.2-4.9-1.2c-1.7,0-3.8,0.3-4.5,0.5v10.3l2.9-0.1    c3.5-0.1,3.5-0.5,3.7-2.9l0.1-1l2.1,0c0,0-0.1,3-0.1,4.9c0,1.8,0.2,4.7,0.2,4.7l-2.1,0l-0.3-2.1c-0.1-1,0-1.4-3.5-1.5l-3,0v9.2    c0,0.8,0.7,1.6,4.1,1.7h2.1c3.5,0,4.2-1.1,4.8-4.2l0.2-1h1.9v7.2h-11c-2.3,0-4.7-0.1-5.7-0.1c-2.3,0-6.4,0.1-7.4,0.1V63.5z"></path>
		<path class="st0" d="M237.3,52.6c3,0.6,4.9,2.1,6,5.8c1.3,4.6,2.1,5,5,5.2h1.1v1.8c-0.6,0.1-2.9,0.5-4.5,0.5c-7.1,0-8.4-3-9-7.7    c-0.5-3.5-1.7-4.9-4.4-5c0,0-1.3,0-2.5-0.1c0,4.6,0.1,9.3,0.2,10.4l4.2,0.2v2c-1,0-5.6-0.1-8-0.1c-2.3,0-6.6,0.1-7.6,0.1v-2    l3.8-0.2c0.2-1.3,0.2-7.4,0.2-12.5c0-4.9-0.1-9.5-0.2-10.8l-3.8-0.2v-2c1,0,5.2,0.2,7.6,0.2c2.4,0,7.3-0.1,7.3-0.1    c7,0,10.8,2.8,10.8,7.5C243.6,49.1,241.2,51.7,237.3,52.6 M229,51.1c0.8,0,1.5-0.1,1.5-0.1c3.7-0.2,5.8-1.7,5.8-5.7    c0-3.4-2.1-5.5-5.3-5.5l-1.7,0.2c-0.2,1.3-0.2,5.9-0.2,10.8V51.1z"></path>
		<path class="st0" d="M33.6,100l3.8-0.2c0.2-1.3,0.2-7.4,0.2-12.4c0-4.9-0.1-9.5-0.2-10.8l-3.8-0.2v-2c1,0,5.1,0.2,7.4,0.2    c2.3,0,6.4-0.1,7.4-0.2v2l-3.4,0.2c-0.2,1.2-0.2,5.3-0.2,9.8H55c0-4.5-0.1-8.5-0.2-9.8l-3.4-0.2v-2c1,0,4.6,0.2,6.9,0.2    c2.3,0,6.8-0.1,7.8-0.2v2l-3.8,0.2c-0.2,1.3-0.2,5.9-0.2,10.8c0,5.1,0.1,11.2,0.2,12.4l3.8,0.2v2c-1,0-5.5-0.1-7.8-0.1    c-2.4,0-5.9,0.1-6.9,0.1v-2l3.4-0.2C55,98.6,55,93.4,55,88.6H44.7c0,4.8,0.1,10,0.2,11.2l3.4,0.2v2c-1,0-5-0.1-7.4-0.1    c-2.3,0-6.4,0.1-7.4,0.1V100z"></path>
		<path class="st0" d="M74.8,88.7c0-8,7.2-15,15.4-15c8.4,0,15,6.4,15,14.3c0,8-6.9,14.6-15.3,14.6C81.7,102.6,74.8,96.2,74.8,88.7     M97.9,88.3c0-7.5-3-12.4-7.7-12.4c-4.6,0-8.1,5.1-8.1,12.1c0,7.6,3.1,12.4,8,12.4C95.4,100.4,97.9,96.5,97.9,88.3"></path>
		<path class="st0" d="M113.8,100l3.8-0.2c0.2-1.3,0.2-7.4,0.2-12.4c0-4.9-0.1-9.5-0.2-10.8l-3.8-0.2v-2c1,0,5.2,0.2,7.6,0.2    c2.4,0,12.7-0.2,14.9-0.2l0.3,5.5h-1.9c0,0-0.1-1.7-0.7-2.3c-0.7-0.7-2.1-1.2-4.9-1.2c-1.7,0-3.5,0.3-4.1,0.4v10.8l3.1-0.1    c3.5-0.1,4-0.5,4.1-2.9l0.1-1l2.2,0c0,0-0.1,2.9-0.1,4.7c0,1.8,0.2,4.9,0.2,4.9l-2.2,0l-0.3-2.1c-0.1-1-0.4-1.4-3.9-1.5l-3.1,0    c0,4.5,0.1,9.2,0.2,10.2l4,0.2v2c-1,0-5.4-0.1-7.8-0.1c-2.3,0-6.6,0.1-7.6,0.1V100z"></path>
	</g>
</switch>

</svg>
